<?xml version="1.0" encoding="UTF-8"?>
<svg version="1.1" xmlns="http://www.w3.org/2000/svg" width="192" height="192">
<path d="M0 0 C1.16015625 -0.020625 2.3203125 -0.04125 3.515625 -0.0625 C14.31624409 -0.11082492 23.95773015 2.22883948 34 6.0625 C34.67885254 6.32111816 35.35770508 6.57973633 36.05712891 6.84619141 C57.92927706 15.43789176 75.51184788 33.58119077 84.921875 54.93579102 C85.23640625 55.69947998 85.5509375 56.46316895 85.875 57.25 C86.30296875 58.28116943 86.7309375 59.31233887 87.171875 60.37475586 C91.08970824 70.78569808 91.75193612 80.37857431 91.625 91.4375 C91.61969772 92.72401962 91.61969772 92.72401962 91.61428833 94.03652954 C91.5201367 107.47076124 90.24948675 119.2005109 83.875 131.25 C83.01261719 132.98056641 83.01261719 132.98056641 82.1328125 134.74609375 C71.6997122 154.00165444 55.07846134 168.92904704 34.875 177.25 C33.84383057 177.67796875 32.81266113 178.1059375 31.75024414 178.546875 C21.33930192 182.46470824 11.74642569 183.12693612 0.6875 183 C-0.17017975 182.99646515 -1.0278595 182.9929303 -1.91152954 182.98928833 C-15.34576124 182.8951367 -27.0755109 181.62448675 -39.125 175.25 C-40.85556641 174.38761719 -40.85556641 174.38761719 -42.62109375 173.5078125 C-66.33984546 160.65645389 -80.98752315 139.79827322 -89.1796875 114.625 C-91.28231978 107.11808146 -91.34125396 99.86971678 -91.375 92.125 C-91.395625 90.96484375 -91.41625 89.8046875 -91.4375 88.609375 C-91.48582492 77.80875591 -89.14616052 68.16726985 -85.3125 58.125 C-85.05388184 57.44614746 -84.79526367 56.76729492 -84.52880859 56.06787109 C-75.78091718 33.7981027 -57.55138913 16.80796477 -36.02197266 7.05664062 C-24.0776706 1.97762209 -12.93573712 0.05636487 0 0 Z " fill="#010000" transform="translate(96.125,4.75)"/>
<path d="M0 0 C0.79198288 0.00707474 1.58396576 0.01414948 2.39994812 0.0214386 C4.91735264 0.04931881 7.43249231 0.11203925 9.94921875 0.17578125 C11.66077505 0.20087264 13.3723664 0.22368434 15.08398438 0.24414062 C19.26979301 0.2948654 23.4507365 0.39271088 27.63671875 0.48828125 C27.63671875 12.03828125 27.63671875 23.58828125 27.63671875 35.48828125 C18.13671875 38.30078125 18.13671875 38.30078125 15.19335938 39.16723633 C10.54075855 40.55421487 5.98451113 42.06074765 1.45507812 43.80737305 C-1.27937909 44.83132594 -4.06512381 45.65714538 -6.86328125 46.48828125 C-10.53363363 47.59319702 -14.12264546 48.73910899 -17.67578125 50.17578125 C-21.6965005 51.60688471 -25.13077549 52.11037895 -29.36328125 52.48828125 C-29.36328125 53.14828125 -29.36328125 53.80828125 -29.36328125 54.48828125 C-32.79892147 55.49474851 -36.23707754 56.49233575 -39.67578125 57.48828125 C-41.14047852 57.91753906 -41.14047852 57.91753906 -42.63476562 58.35546875 C-43.57255859 58.62617188 -44.51035156 58.896875 -45.4765625 59.17578125 C-46.34063721 59.42714844 -47.20471191 59.67851562 -48.0949707 59.9375 C-50.36328125 60.48828125 -50.36328125 60.48828125 -53.36328125 60.48828125 C-53.36328125 61.14828125 -53.36328125 61.80828125 -53.36328125 62.48828125 C-62.76828125 64.96328125 -62.76828125 64.96328125 -72.36328125 67.48828125 C-71.22259956 62.92555449 -69.93321976 61.67237786 -66.6640625 58.390625 C-65.9550605 57.67731773 -65.9550605 57.67731773 -65.23173523 56.94960022 C-64.23084898 55.94667586 -63.22617761 54.94751662 -62.21801758 53.9519043 C-60.68798403 52.43785653 -59.17451761 50.90858376 -57.66210938 49.37695312 C-56.68455349 48.40138111 -55.70606664 47.42674089 -54.7265625 46.453125 C-53.84266846 45.57261475 -52.95877441 44.69210449 -52.0480957 43.78491211 C-47.82678801 40.17394171 -43.46396547 38.34039227 -38.11328125 37.05078125 C-34.45687835 36.10592343 -31.0298218 35.0180537 -27.55078125 33.55078125 C-22.37251044 31.38833536 -17.06760152 29.89828748 -11.66015625 28.41796875 C-9.44515663 27.79335985 -7.24604656 27.10969224 -5.06640625 26.37109375 C-2.36328125 25.48828125 -2.36328125 25.48828125 -0.36328125 25.48828125 C-0.36328125 20.20828125 -0.36328125 14.92828125 -0.36328125 9.48828125 C-5.31328125 9.48828125 -10.26328125 9.48828125 -15.36328125 9.48828125 C-11.61732627 1.9963713 -8.30019097 -0.28122941 0 0 Z " fill="#F66D01" transform="translate(121.36328125,79.51171875)"/>
<path d="M0 0 C-0.52464844 0.45246094 -1.04929687 0.90492187 -1.58984375 1.37109375 C-5.92780425 5.18936514 -10.08586076 9.04894361 -14.0625 13.2421875 C-14.7831665 13.99314697 -15.50383301 14.74410645 -16.24633789 15.51782227 C-17.67763363 17.01673577 -19.09429252 18.52980196 -20.49389648 20.05834961 C-25.76489455 25.54375271 -30.73116322 27.92723766 -38 30 C-39.20011719 30.38285156 -40.40023437 30.76570313 -41.63671875 31.16015625 C-43.14685547 31.60681641 -43.14685547 31.60681641 -44.6875 32.0625 C-48.3118939 33.15196278 -51.85950948 34.28674362 -55.375 35.6875 C-59.05087453 37.01842009 -62.13858902 37.59776969 -66 38 C-66 38.66 -66 39.32 -66 40 C-69.465 40.495 -69.465 40.495 -73 41 C-73 46.28 -73 51.56 -73 57 C-68.38 57 -63.76 57 -59 57 C-60.92287294 61.80718235 -62.51019238 64.54532383 -67 67 C-69.95411306 67.43061523 -72.31200715 67.59166299 -75.2421875 67.48828125 C-75.92418213 67.48324585 -76.60617676 67.47821045 -77.30883789 67.47302246 C-79.83132591 67.44706516 -82.35320977 67.37725827 -84.875 67.3125 C-90.52625 67.209375 -96.1775 67.10625 -102 67 C-102 55.45 -102 43.9 -102 32 C-101.01 32 -100.02 32 -99 32 C-99 31.34 -99 30.68 -99 30 C-95.70929159 29.16285091 -92.41728353 28.33093104 -89.125 27.5 C-88.18785156 27.26152344 -87.25070313 27.02304688 -86.28515625 26.77734375 C-85.38925781 26.55175781 -84.49335937 26.32617188 -83.5703125 26.09375 C-82.74289551 25.88427734 -81.91547852 25.67480469 -81.06298828 25.45898438 C-79 25 -79 25 -77 25 C-77 24.34 -77 23.68 -77 23 C-73.87605609 22.16267257 -70.75068026 21.33082018 -67.625 20.5 C-66.29082031 20.14228516 -66.29082031 20.14228516 -64.9296875 19.77734375 C-64.07890625 19.55175781 -63.228125 19.32617188 -62.3515625 19.09375 C-61.56604004 18.88427734 -60.78051758 18.67480469 -59.97119141 18.45898438 C-58 18 -58 18 -56 18 C-56 17.34 -56 16.68 -56 16 C-53.5636811 15.32873871 -51.12611117 14.66283646 -48.6875 14 C-47.99720703 13.80921875 -47.30691406 13.6184375 -46.59570312 13.421875 C-43.64212051 12.62283816 -41.07440781 12 -38 12 C-38 11.34 -38 10.68 -38 10 C-35.06377536 9.16193384 -32.12617933 8.32937556 -29.1875 7.5 C-28.35412109 7.26152344 -27.52074219 7.02304687 -26.66210938 6.77734375 C-25.85966797 6.55175781 -25.05722656 6.32617188 -24.23046875 6.09375 C-23.12288208 5.77954102 -23.12288208 5.77954102 -21.99291992 5.45898438 C-20 5 -20 5 -17 5 C-17 4.34 -17 3.68 -17 3 C-14.73194205 2.30190555 -12.46133393 1.61628983 -10.1875 0.9375 C-9.54490234 0.73833984 -8.90230469 0.53917969 -8.24023438 0.33398438 C-3.33984375 -1.11328125 -3.33984375 -1.11328125 0 0 Z " fill="#F86E01" transform="translate(147,48)"/>
<path d="M0 0 C0.33 0.66 0.66 1.32 1 2 C3.84535725 3.42267862 6.36218552 3.21971869 9.5390625 3.31640625 C10.84101562 3.35830078 12.14296875 3.40019531 13.484375 3.44335938 C14.86458045 3.48317299 16.24478883 3.52288522 17.625 3.5625 C19.01303415 3.60569407 20.40105528 3.64930865 21.7890625 3.69335938 C25.19260256 3.79972 28.59621778 3.90174714 32 4 C32 4.33 32 4.66 32 5 C30.46460571 4.98259766 30.46460571 4.98259766 28.89819336 4.96484375 C25.07516038 4.93214132 21.25386555 4.95226573 17.4309082 4.98779297 C15.7811768 4.99586959 14.13131122 4.9899016 12.48168945 4.96923828 C2.93796911 4.55890849 2.93796911 4.55890849 -5.68310547 7.84765625 C-7.87233785 10.21968917 -7.87233785 10.21968917 -10 14 C-5.05 14 -0.1 14 5 14 C5 19.28 5 24.56 5 30 C4.34 30 3.68 30 3 30 C2.67 28.68 2.34 27.36 2 26 C1.01 26.66 0.02 27.32 -1 28 C-5.6632034 28.76387713 -9.17004072 28.43034926 -13.375 26.25 C-16.75593106 23.35205909 -18.59179295 21.22462114 -20 17 C-20.04166002 14.6670386 -20.04166002 12.3329614 -20 10 C-20 9.01 -20 8.02 -20 7 C-17.41866846 5.2791123 -15.87205794 4.5348737 -12.98828125 3.7109375 C-12.23095703 3.49179688 -11.47363281 3.27265625 -10.69335938 3.046875 C-9.51483398 2.71429688 -9.51483398 2.71429688 -8.3125 2.375 C-7.51521484 2.14554687 -6.71792969 1.91609375 -5.89648438 1.6796875 C-3.9323213 1.11513764 -1.96633153 0.55695012 0 0 Z " fill="#1C110A" transform="translate(116,75)"/>
<path d="M0 0 C0.79198288 0.00707474 1.58396576 0.01414948 2.39994812 0.0214386 C4.91735264 0.04931881 7.43249231 0.11203925 9.94921875 0.17578125 C11.66077505 0.20087264 13.3723664 0.22368434 15.08398438 0.24414062 C19.26979301 0.2948654 23.4507365 0.39271088 27.63671875 0.48828125 C27.63671875 12.03828125 27.63671875 23.58828125 27.63671875 35.48828125 C27.30671875 35.48828125 26.97671875 35.48828125 26.63671875 35.48828125 C26.63671875 24.26828125 26.63671875 13.04828125 26.63671875 1.48828125 C14.26171875 1.98328125 14.26171875 1.98328125 1.63671875 2.48828125 C2.29671875 3.80828125 2.95671875 5.12828125 3.63671875 6.48828125 C3.61328125 9.06640625 3.61328125 9.06640625 3.26171875 11.73828125 C3.09542969 13.07632813 3.09542969 13.07632813 2.92578125 14.44140625 C2.78269531 15.45460938 2.78269531 15.45460938 2.63671875 16.48828125 C1.97671875 16.48828125 1.31671875 16.48828125 0.63671875 16.48828125 C0.63671875 19.45828125 0.63671875 22.42828125 0.63671875 25.48828125 C0.30671875 25.48828125 -0.02328125 25.48828125 -0.36328125 25.48828125 C-0.36328125 20.20828125 -0.36328125 14.92828125 -0.36328125 9.48828125 C-5.31328125 9.48828125 -10.26328125 9.48828125 -15.36328125 9.48828125 C-11.61732627 1.9963713 -8.30019097 -0.28122941 0 0 Z " fill="#CD600B" transform="translate(121.36328125,79.51171875)"/>
<path d="M0 0 C0.66 0 1.32 0 2 0 C2 10.89 2 21.78 2 33 C6.80568165 32.88024017 11.61111265 32.75765239 16.41650391 32.62768555 C18.05187653 32.58432462 19.68729477 32.54265039 21.32275391 32.50268555 C23.67103841 32.44501088 26.01909304 32.38130871 28.3671875 32.31640625 C29.10057343 32.29969376 29.83395935 32.28298126 30.58956909 32.26576233 C34.42202308 32.21362038 34.42202308 32.21362038 38 31 C37 34 37 34 35 35 C32.37397954 35.08666427 29.77415384 35.11567559 27.1484375 35.09765625 C26.46241455 35.09664917 25.7763916 35.09564209 25.06958008 35.09460449 C22.50470307 35.08936889 19.93984987 35.07540763 17.375 35.0625 C11.64125 35.041875 5.9075 35.02125 0 35 C0 23.45 0 11.9 0 0 Z " fill="#9C4A0D" transform="translate(45,80)"/>
<path d="M0 0 C1.32 0.33 2.64 0.66 4 1 C4.83796731 5.65537393 5.0161692 9.37078475 4 14 C3.01 14 2.02 14 1 14 C1.33 14.99 1.66 15.98 2 17 C1.25 19.125 1.25 19.125 0 21 C-0.99 21.33 -1.98 21.66 -3 22 C-3 20.02 -3 18.04 -3 16 C-2.34 16 -1.68 16 -1 16 C-0.4254048 12.26513121 0 8.78706732 0 5 C0 3.33333333 0 1.66666667 0 0 Z " fill="#F2700B" transform="translate(126,82)"/>
<path d="M0 0 C1.98 0 3.96 0 6 0 C4.79618552 2.49361571 3.54571278 4.68143083 2 7 C4.64 7 7.28 7 10 7 C10 7.99 10 8.98 10 10 C6.7 10.33 3.4 10.66 0 11 C0 7.37 0 3.74 0 0 Z " fill="#050303" transform="translate(103,83)"/>
<path d="M0 0 C1.32 0 2.64 0 4 0 C3.67 1.32 3.34 2.64 3 4 C2.01 2.68 1.02 1.36 0 0 Z M-22 27 C-21.01 27.99 -20.02 28.98 -19 30 C-20.32 30 -21.64 30 -23 30 C-22.67 29.01 -22.34 28.02 -22 27 Z " fill="#0F0803" transform="translate(144,46)"/>
<path d="M0 0 C-2.31 1.65 -4.62 3.3 -7 5 C-7 4.34 -7 3.68 -7 3 C-10.3 3.33 -13.6 3.66 -17 4 C-14.05276949 2.03517966 -11.88022174 1.2438783 -8.5 0.3125 C-7.5409375 0.04050781 -6.581875 -0.23148438 -5.59375 -0.51171875 C-3 -1 -3 -1 0 0 Z " fill="#D96408" transform="translate(147,48)"/>
<path d="M0 0 C0 0.66 0 1.32 0 2 C-7.92 3.485 -7.92 3.485 -16 5 C-15 3 -15 3 -12.12890625 1.89453125 C-10.95199219 1.53746094 -9.77507812 1.18039063 -8.5625 0.8125 C-7.38816406 0.44769531 -6.21382812 0.08289063 -5.00390625 -0.29296875 C-2 -1 -2 -1 0 0 Z " fill="#B3540A" transform="translate(108,110)"/>
<path d="M0 0 C2.79794127 0.01798163 5.56201769 0.11890813 8.3515625 0.33203125 C5.34206127 1.94928659 2.38052642 3.00785748 -0.8984375 3.95703125 C-2.23648438 4.34761719 -2.23648438 4.34761719 -3.6015625 4.74609375 C-4.27703125 4.93945312 -4.9525 5.1328125 -5.6484375 5.33203125 C-4.52887184 1.88721383 -3.69126529 0.46276925 0 0 Z " fill="#D5630B" transform="translate(107.6484375,74.66796875)"/>
<path d="M0 0 C0.99 0.33 1.98 0.66 3 1 C3 1.66 3 2.32 3 3 C3.99 3.33 4.98 3.66 6 4 C5.67 4.99 5.34 5.98 5 7 C1.60085025 5.86695008 0.94745549 4.87481525 -1 2 C-0.67 1.34 -0.34 0.68 0 0 Z " fill="#0F0B0A" transform="translate(93,96)"/>
<path d="M0 0 C2.31 0.33 4.62 0.66 7 1 C4.64046906 3.35953094 3.22104383 3.49141413 0 4 C0 2.68 0 1.36 0 0 Z " fill="#100C0B" transform="translate(103,104)"/>
</svg>
